<?xml version="1.0" encoding="utf-8"?>
<!-- Generator: Adobe Illustrator 16.0.0, SVG Export Plug-In . SVG Version: 6.00 Build 0)  -->
<!DOCTYPE svg PUBLIC "-//W3C//DTD SVG 1.1//EN" "http://www.w3.org/Graphics/SVG/1.1/DTD/svg11.dtd">
<svg version="1.1" id="Layer_1" xmlns="http://www.w3.org/2000/svg" xmlns:xlink="http://www.w3.org/1999/xlink" x="0px" y="0px"
	 width="200px" height="58.8px" viewBox="0 0 200 58.8" style="enable-background:new 0 0 200 58.8;" xml:space="preserve">
<path style="fill:#FFFFFF;" d="M179.5,34.3c-0.1-0.1-0.2-0.1-0.4-0.1c-0.1,0-0.3-0.1-0.4-0.1c0,0,0,0,0,0c0,0,0,0,0,0l0,0
	c0.2,0,0.4,0.2,0.7,0.3c0.2,0.1,0.4,0.3,0.7,0.4c0.5,0.2,0.9,0.5,1.6,0.4c0.6-0.1,1-0.4,1.4-0.8c0.2-0.2,0.4-0.4,0.5-0.6l0.3-0.3
	c0.1-0.1,0.2-0.2,0.3-0.2l0,0c0,0,0,0,0,0c0,0,0,0,0,0c-0.1,0-0.3,0.1-0.4,0.2l-0.3,0.2c-0.2,0.2-0.4,0.3-0.6,0.5
	c-0.4,0.3-0.8,0.6-1.3,0.6c-0.4,0.1-0.9-0.1-1.4-0.4L179.5,34.3z"/>
<path style="fill:#FFFFFF;" d="M182.2,24c-0.2,0-0.4,0-0.6,0c-0.1-3,0.1-5.9,0.8-8.8c1.2-5.2,3.6-9.6,8-12.8c0,0,0.1-0.1,0-0.2
	c-0.4-0.5-0.8-0.9-1.3-1.5c0-0.1-0.1,0-0.2,0c-1.5,2.2-3.1,4.1-4.3,6.2c-3.1,5.5-3.6,10.7-3.7,17.3c-0.1,2.8,0.1,5.7,0.5,8.6
	c0,0.1,0.1,0.1,0.1,0.1c0.9-0.3,1.6-0.7,2.4-0.9c3.9-1.2,6.6,0.1,8.1,3.9c1.8,4.6-0.1,10.7-4,13.3c-6.1,4-14.2,0.9-15.9-6.2
	c-0.4-1.4-0.6-3-0.5-4.4c0.2-3.9,3.1-6,7.3-5.6c0.5,0,1.1,0.1,1.8,0.2c0.1,0,0.1,0,0.1-0.1c-0.4-3-0.6-6-0.6-9
	c-8.3,0.9-14.7,8-14.7,16.5c0,9.2,7.5,16.6,16.6,16.6c9.2,0,16.6-7.5,16.6-16.6C198.8,31.5,191.4,24,182.2,24"/>
<path style="fill:#FFFFFF;" d="M190.9,37.3c-0.2-2.1-1.3-3.5-3.3-3.9C190.1,34.9,190.3,36,190.9,37.3"/>
<path style="fill:#FFFFFF;" d="M176.1,35.1c-3,0.6-3.8,4.5-1.8,8.6c0.1,0.1,0.2,0.1,0.2-0.1c-0.4-3.1-0.4-5.9,1.7-8.4
	C176.3,35.2,176.2,35.1,176.1,35.1"/>
<path style="fill:#FFFFFF;" d="M1.1,40.8L1.1,40.8c0-9.5,7.1-17.2,17.3-17.2c6.1,0,9.8,2,12.9,4.9c0.1,0.1,0.1,0.3,0,0.4l-4.3,5
	c-0.1,0.1-0.3,0.1-0.4,0c-2.5-2.2-5.1-3.6-8.3-3.6c-5.6,0-9.6,4.6-9.6,10.3c0,8.1,9,13.1,15.7,8.7c0.8-0.5,1.6-1.2,2.4-1.9
	c0.1-0.1,0.3-0.1,0.3,0l4.3,4.3c0.1,0.1,0.1,0.3,0,0.4c-3.4,3.5-7.1,5.7-13.4,5.7C8.3,57.9,1.1,50.3,1.1,40.8"/>
<path style="fill:#FFFFFF;" d="M34.5,24.2h6.8c0.1,0,0.3,0.1,0.3,0.3V37c0,0.1,0.1,0.3,0.3,0.3h12.9c0.1,0,0.3-0.1,0.3-0.3V24.4
	c0-0.1,0.1-0.3,0.3-0.3h6.8c0.1,0,0.3,0.1,0.3,0.3V57c0,0.1-0.1,0.3-0.3,0.3h-6.8c-0.1,0-0.3-0.1-0.3-0.3V44.2
	c0-0.1-0.1-0.3-0.3-0.3H41.8c-0.1,0-0.3,0.1-0.3,0.3V57c0,0.1-0.1,0.3-0.3,0.3h-6.8c-0.1,0-0.3-0.1-0.3-0.3V24.4
	C34.3,24.3,34.4,24.2,34.5,24.2"/>
<path style="fill:#FFFFFF;" d="M55.4,24.2h24.5c0.1,0,0.3,0.1,0.3,0.3v6c0,0.1-0.1,0.3-0.3,0.3H62.6c-0.1,0-0.3,0.1-0.3,0.3v6.2
	c0,0.1,0.1,0.3,0.3,0.3h15.1c0.1,0,0.3,0.1,0.3,0.3v6c0,0.1-0.1,0.3-0.3,0.3H62.6c-0.1,0-0.3,0.1-0.3,0.3v6.5c0,0.1,0.1,0.3,0.3,0.3
	h17.5c0.1,0,0.3,0.1,0.3,0.3v6c0,0.1-0.1,0.3-0.3,0.3H55.4c-0.1,0-0.3-0.1-0.3-0.3V24.4C55.1,24.3,55.2,24.2,55.4,24.2"/>
<path style="fill:#FFFFFF;" d="M83,24.4c0-0.1,0.1-0.3,0.3-0.3h14.9c4.2,0,7.5,1.2,9.7,3.4c1.8,1.8,2.8,4.4,2.8,7.6v0.1
	c0,5.2-2.8,8.5-6.8,10.2c-0.2,0.1-0.2,0.2-0.1,0.4l7.6,11.2c0.1,0.2,0,0.4-0.2,0.4h-7.9c-0.1,0-0.2,0-0.2-0.1l-6.9-10.4
	c0-0.1-0.1-0.1-0.2-0.1h-5.3c-0.1,0-0.3,0.1-0.3,0.3V57c0,0.1-0.1,0.3-0.3,0.3h-6.8c-0.1,0-0.3-0.1-0.3-0.3V24.4z M97.7,40.2
	c3.5,0,5.6-1.9,5.6-4.7v-0.1c0-3.1-2.2-4.7-5.7-4.7h-7c-0.1,0-0.3,0.1-0.3,0.3v9c0,0.1,0.1,0.3,0.3,0.3H97.7z"/>
<path style="fill:#FFFFFF;" d="M114.2,24.4c0-0.1,0.1-0.3,0.3-0.3h14.9c4.2,0,7.5,1.2,9.7,3.4c1.8,1.8,2.8,4.4,2.8,7.6v0.1
	c0,5.2-2.8,8.5-6.8,10.2c-0.1,0.1-0.2,0.2-0.1,0.4l7.6,11.2c0.1,0.2,0,0.4-0.2,0.4h-7.9c-0.1,0-0.2,0-0.2-0.1l-6.9-10.4
	c0-0.1-0.1-0.1-0.2-0.1h-5.3c-0.1,0-0.3,0.1-0.3,0.3V57c0,0.1-0.1,0.3-0.3,0.3h-6.8c-0.1,0-0.3-0.1-0.3-0.3V24.4z M128.9,40.2
	c3.5,0,5.6-1.9,5.6-4.7v-0.1c0-3.1-2.2-4.7-5.7-4.7h-7c-0.1,0-0.3,0.1-0.3,0.3v9c0,0.1,0.1,0.3,0.3,0.3H128.9z"/>
<path style="fill:#FFFFFF;" d="M155.9,24.2h6.8c0.1,0,0.3,0.1,0.3,0.3V57c0,0.1-0.1,0.3-0.3,0.3h-6.8c-0.1,0-0.3-0.1-0.3-0.3V24.4
	C155.6,24.3,155.7,24.2,155.9,24.2"/>
<path style="fill:#FFFFFF;" d="M152.2,53.5c0,2.1-1.7,3.7-3.7,3.7c-2.1,0-3.7-1.7-3.7-3.7s1.7-3.7,3.7-3.7
	C150.5,49.7,152.2,51.4,152.2,53.5"/>
<g>
</g>
<g>
</g>
<g>
</g>
<g>
</g>
<g>
</g>
<g>
</g>
</svg>
