<?xml version="1.0" encoding="utf-8"?>
<!-- Generator: Adobe Illustrator 16.0.0, SVG Export Plug-In . SVG Version: 6.00 Build 0)  -->
<!DOCTYPE svg PUBLIC "-//W3C//DTD SVG 1.1//EN" "http://www.w3.org/Graphics/SVG/1.1/DTD/svg11.dtd">
<svg version="1.1" id="Capa_1" xmlns="http://www.w3.org/2000/svg" xmlns:xlink="http://www.w3.org/1999/xlink" x="0px" y="0px"
	 width="512px" height="512px" viewBox="0 0 512 512" enable-background="new 0 0 512 512" xml:space="preserve">
<g>
	<g>
		<path fill="#999999" d="M512,97.262c-18.845,8.35-39.064,14.013-60.309,16.541c21.692-12.99,38.297-33.594,46.167-58.069
			c-20.349,12.03-42.809,20.765-66.74,25.5c-19.164-20.444-46.423-33.178-76.658-33.178c-58.005,0-105.036,47.031-105.036,105.004
			c0,8.222,0.928,16.252,2.72,23.932c-87.279-4.384-164.672-46.199-216.471-109.74c-9.054,15.485-14.206,33.529-14.206,52.791
			c0,36.441,18.557,68.595,46.712,87.407c-17.213-0.576-33.402-5.311-47.575-13.182v1.312c0,50.87,36.217,93.326,84.24,102.989
			c-8.799,2.367-18.077,3.679-27.675,3.679c-6.782,0-13.341-0.671-19.772-1.952c13.373,41.753,52.15,72.115,98.094,72.947
			c-35.93,28.155-81.233,44.888-130.439,44.888c-8.479,0-16.829-0.512-25.051-1.439c46.487,29.851,101.677,47.255,160.994,47.255
			c193.211,0,298.824-160.034,298.824-298.824l-0.352-13.597C480.103,136.806,497.954,118.314,512,97.262z"/>
	</g>
</g>
</svg>
